# MagicaVoxel @ Ephtracy

# group
o 

# material
mtllib Плитка_v2.mtl
usemtl palette

# normals
vn -1 0 0
vn 1 0 0
vn 0 0 1
vn 0 0 -1
vn 0 -1 0
vn 0 1 0

# texcoords
vt 0.263672 0.5
vt 0.310547 0.5
vt 0.326172 0.5

# verts
v -2 0 2
v -2 0 -2
v -2 0.2 2
v -2 0.2 -2
v -1.6 0.1 1.6
v -1.6 0.1 0.0999999
v -1.6 0.1 -0.1
v -1.6 0.1 -1.6
v -1.6 0.2 1.6
v -1.6 0.2 0.0999999
v -1.6 0.2 -0.1
v -1.6 0.2 -1.6
v 0.1 0.1 1.6
v 0.1 0.1 0.0999999
v 0.1 0.1 -0.1
v 0.1 0.1 -1.6
v 0.1 0.2 1.6
v 0.1 0.2 0.0999999
v 0.1 0.2 -0.1
v 0.1 0.2 -1.6
v 1.8 0.1 1.8
v 1.8 0.1 -1.8
v 1.8 0.2 1.8
v 1.8 0.2 -1.8
v -1.8 0.1 1.8
v -1.8 0.1 -1.8
v -1.8 0.2 1.8
v -1.8 0.2 -1.8
v -0.0999999 0.1 1.6
v -0.0999999 0.1 0.0999999
v -0.0999999 0.1 -0.1
v -0.0999999 0.1 -1.6
v -0.0999999 0.2 1.6
v -0.0999999 0.2 0.0999999
v -0.0999999 0.2 -0.1
v -0.0999999 0.2 -1.6
v 1.6 0.1 1.6
v 1.6 0.1 0.0999999
v 1.6 0.1 -0.1
v 1.6 0.1 -1.6
v 1.6 0.2 1.6
v 1.6 0.2 0.0999999
v 1.6 0.2 -0.1
v 1.6 0.2 -1.6
v 2 0 2
v 2 0 -2
v 2 0.2 2
v 2 0.2 -2
v -2 0 2
v -2 0.2 2
v 2 0 2
v 2 0.2 2
v -1.6 0.1 1.6
v -1.6 0.2 1.6
v -0.0999999 0.1 1.6
v -0.0999999 0.2 1.6
v 0.1 0.1 1.6
v 0.1 0.2 1.6
v 1.6 0.1 1.6
v 1.6 0.2 1.6
v -1.6 0.1 -0.1
v -1.6 0.2 -0.1
v -0.0999999 0.1 -0.1
v -0.0999999 0.2 -0.1
v 0.1 0.1 -0.1
v 0.1 0.2 -0.1
v 1.6 0.1 -0.1
v 1.6 0.2 -0.1
v -1.8 0.1 -1.8
v -1.8 0.2 -1.8
v 1.8 0.1 -1.8
v 1.8 0.2 -1.8
v -1.8 0.1 1.8
v -1.8 0.2 1.8
v 1.8 0.1 1.8
v 1.8 0.2 1.8
v -1.6 0.1 0.0999999
v -1.6 0.2 0.0999999
v -0.0999999 0.1 0.0999999
v -0.0999999 0.2 0.0999999
v 0.1 0.1 0.0999999
v 0.1 0.2 0.0999999
v 1.6 0.1 0.0999999
v 1.6 0.2 0.0999999
v -1.6 0.1 -1.6
v -1.6 0.2 -1.6
v -0.0999999 0.1 -1.6
v -0.0999999 0.2 -1.6
v 0.1 0.1 -1.6
v 0.1 0.2 -1.6
v 1.6 0.1 -1.6
v 1.6 0.2 -1.6
v -2 0 -2
v -2 0.2 -2
v 2 0 -2
v 2 0.2 -2
v -2 0 2
v 2 0 2
v -2 0 -2
v 2 0 -2
v -1.8 0.1 1.8
v 1.8 0.1 1.8
v -1.6 0.1 1.6
v -0.0999999 0.1 1.6
v 0.1 0.1 1.6
v 1.6 0.1 1.6
v -1.6 0.1 0.0999999
v -0.0999999 0.1 0.0999999
v 0.1 0.1 0.0999999
v 1.6 0.1 0.0999999
v -1.6 0.1 -0.1
v -0.0999999 0.1 -0.1
v 0.1 0.1 -0.1
v 1.6 0.1 -0.1
v -1.6 0.1 -1.6
v -0.0999999 0.1 -1.6
v 0.1 0.1 -1.6
v 1.6 0.1 -1.6
v -1.8 0.1 -1.8
v 1.8 0.1 -1.8
v -2 0.2 2
v 2 0.2 2
v -1.8 0.2 1.8
v 1.8 0.2 1.8
v -1.6 0.2 1.6
v -0.0999999 0.2 1.6
v 0.1 0.2 1.6
v 1.6 0.2 1.6
v -1.6 0.2 0.0999999
v -0.0999999 0.2 0.0999999
v 0.1 0.2 0.0999999
v 1.6 0.2 0.0999999
v -1.6 0.2 -0.1
v -0.0999999 0.2 -0.1
v 0.1 0.2 -0.1
v 1.6 0.2 -0.1
v -1.6 0.2 -1.6
v -0.0999999 0.2 -1.6
v 0.1 0.2 -1.6
v 1.6 0.2 -1.6
v -1.8 0.2 -1.8
v 1.8 0.2 -1.8
v -2 0.2 -2
v 2 0.2 -2

# faces
f 3/3/1 2/3/1 1/3/1
f 4/3/1 2/3/1 3/3/1
f 9/2/1 6/2/1 5/2/1
f 10/2/1 6/2/1 9/2/1
f 11/1/1 8/1/1 7/1/1
f 12/1/1 8/1/1 11/1/1
f 17/1/1 14/1/1 13/1/1
f 18/1/1 14/1/1 17/1/1
f 19/2/1 16/2/1 15/2/1
f 20/2/1 16/2/1 19/2/1
f 23/3/1 22/3/1 21/3/1
f 24/3/1 22/3/1 23/3/1
f 25/3/2 26/3/2 27/3/2
f 27/3/2 26/3/2 28/3/2
f 29/2/2 30/2/2 33/2/2
f 33/2/2 30/2/2 34/2/2
f 31/1/2 32/1/2 35/1/2
f 35/1/2 32/1/2 36/1/2
f 37/1/2 38/1/2 41/1/2
f 41/1/2 38/1/2 42/1/2
f 39/2/2 40/2/2 43/2/2
f 43/2/2 40/2/2 44/2/2
f 45/3/2 46/3/2 47/3/2
f 47/3/2 46/3/2 48/3/2
f 51/3/3 50/3/3 49/3/3
f 52/3/3 50/3/3 51/3/3
f 55/2/3 54/2/3 53/2/3
f 56/2/3 54/2/3 55/2/3
f 59/1/3 58/1/3 57/1/3
f 60/1/3 58/1/3 59/1/3
f 63/1/3 62/1/3 61/1/3
f 64/1/3 62/1/3 63/1/3
f 67/2/3 66/2/3 65/2/3
f 68/2/3 66/2/3 67/2/3
f 71/3/3 70/3/3 69/3/3
f 72/3/3 70/3/3 71/3/3
f 73/3/4 74/3/4 75/3/4
f 75/3/4 74/3/4 76/3/4
f 77/2/4 78/2/4 79/2/4
f 79/2/4 78/2/4 80/2/4
f 81/1/4 82/1/4 83/1/4
f 83/1/4 82/1/4 84/1/4
f 85/1/4 86/1/4 87/1/4
f 87/1/4 86/1/4 88/1/4
f 89/2/4 90/2/4 91/2/4
f 91/2/4 90/2/4 92/2/4
f 93/3/4 94/3/4 95/3/4
f 95/3/4 94/3/4 96/3/4
f 99/3/5 98/3/5 97/3/5
f 100/3/5 98/3/5 99/3/5
f 101/3/6 102/3/6 103/3/6
f 103/3/6 102/3/6 104/3/6
f 104/3/6 102/3/6 105/3/6
f 105/3/6 102/3/6 106/3/6
f 101/3/6 103/3/6 107/3/6
f 104/3/6 105/3/6 108/3/6
f 108/3/6 105/3/6 109/3/6
f 106/3/6 102/3/6 110/3/6
f 108/3/6 109/3/6 111/3/6
f 109/3/6 110/3/6 111/3/6
f 101/3/6 107/3/6 111/3/6
f 107/3/6 108/3/6 111/3/6
f 111/3/6 110/3/6 112/3/6
f 112/3/6 110/3/6 113/3/6
f 110/3/6 102/3/6 114/3/6
f 113/3/6 110/3/6 114/3/6
f 101/3/6 111/3/6 115/3/6
f 112/3/6 113/3/6 116/3/6
f 116/3/6 113/3/6 117/3/6
f 114/3/6 102/3/6 118/3/6
f 101/3/6 115/3/6 119/3/6
f 117/3/6 118/3/6 119/3/6
f 116/3/6 117/3/6 119/3/6
f 115/3/6 116/3/6 119/3/6
f 118/3/6 102/3/6 120/3/6
f 119/3/6 118/3/6 120/3/6
f 121/3/6 122/3/6 123/3/6
f 123/3/6 122/3/6 124/3/6
f 125/2/6 126/2/6 129/2/6
f 129/2/6 126/2/6 130/2/6
f 127/1/6 128/1/6 131/1/6
f 131/1/6 128/1/6 132/1/6
f 133/1/6 134/1/6 137/1/6
f 137/1/6 134/1/6 138/1/6
f 135/2/6 136/2/6 139/2/6
f 139/2/6 136/2/6 140/2/6
f 121/3/6 123/3/6 141/3/6
f 124/3/6 122/3/6 142/3/6
f 121/3/6 141/3/6 143/3/6
f 141/3/6 142/3/6 143/3/6
f 142/3/6 122/3/6 144/3/6
f 143/3/6 142/3/6 144/3/6
