# MagicaVoxel @ Ephtracy

# group
o 

# material
mtllib Плитка_v4.mtl
usemtl palette

# normals
vn -1 0 0
vn 1 0 0
vn 0 0 1
vn 0 0 -1
vn 0 -1 0
vn 0 1 0

# texcoords
vt 0.119141 0.5
vt 0.263672 0.5
vt 0.310547 0.5
vt 0.357422 0.5

# verts
v -2 0 2
v -2 0 -2
v -2 0.1 2
v -2 0.1 -2
v -2 0.2 2
v -2 0.2 -2
v -1.6 0.1 1.6
v -1.6 0.1 0.0999999
v -1.6 0.1 -0.1
v -1.6 0.1 -1.6
v -1.6 0.2 1.6
v -1.6 0.2 0.0999999
v -1.6 0.2 -0.1
v -1.6 0.2 -1.6
v 0.1 0.1 1.6
v 0.1 0.1 0.0999999
v 0.1 0.1 -0.1
v 0.1 0.1 -1.6
v 0.1 0.2 1.6
v 0.1 0.2 0.0999999
v 0.1 0.2 -0.1
v 0.1 0.2 -1.6
v 1.8 0.1 1.8
v 1.8 0.1 -1.8
v 1.8 0.2 1.8
v 1.8 0.2 -1.8
v -1.8 0.1 1.8
v -1.8 0.1 -1.8
v -1.8 0.2 1.8
v -1.8 0.2 -1.8
v -0.0999999 0.1 1.6
v -0.0999999 0.1 0.0999999
v -0.0999999 0.1 -0.1
v -0.0999999 0.1 -1.6
v -0.0999999 0.2 1.6
v -0.0999999 0.2 0.0999999
v -0.0999999 0.2 -0.1
v -0.0999999 0.2 -1.6
v 1.6 0.1 1.6
v 1.6 0.1 0.0999999
v 1.6 0.1 -0.1
v 1.6 0.1 -1.6
v 1.6 0.2 1.6
v 1.6 0.2 0.0999999
v 1.6 0.2 -0.1
v 1.6 0.2 -1.6
v 2 0 2
v 2 0 -2
v 2 0.1 2
v 2 0.1 -2
v 2 0.2 2
v 2 0.2 -2
v -2 0 2
v -2 0.1 2
v -2 0.2 2
v 2 0 2
v 2 0.1 2
v 2 0.2 2
v -1.6 0.1 1.6
v -1.6 0.2 1.6
v -0.0999999 0.1 1.6
v -0.0999999 0.2 1.6
v 0.1 0.1 1.6
v 0.1 0.2 1.6
v 1.6 0.1 1.6
v 1.6 0.2 1.6
v -1.6 0.1 -0.1
v -1.6 0.2 -0.1
v -0.0999999 0.1 -0.1
v -0.0999999 0.2 -0.1
v 0.1 0.1 -0.1
v 0.1 0.2 -0.1
v 1.6 0.1 -0.1
v 1.6 0.2 -0.1
v -1.8 0.1 -1.8
v -1.8 0.2 -1.8
v 1.8 0.1 -1.8
v 1.8 0.2 -1.8
v -1.8 0.1 1.8
v -1.8 0.2 1.8
v 1.8 0.1 1.8
v 1.8 0.2 1.8
v -1.6 0.1 0.0999999
v -1.6 0.2 0.0999999
v -0.0999999 0.1 0.0999999
v -0.0999999 0.2 0.0999999
v 0.1 0.1 0.0999999
v 0.1 0.2 0.0999999
v 1.6 0.1 0.0999999
v 1.6 0.2 0.0999999
v -1.6 0.1 -1.6
v -1.6 0.2 -1.6
v -0.0999999 0.1 -1.6
v -0.0999999 0.2 -1.6
v 0.1 0.1 -1.6
v 0.1 0.2 -1.6
v 1.6 0.1 -1.6
v 1.6 0.2 -1.6
v -2 0 -2
v -2 0.1 -2
v -2 0.2 -2
v 2 0 -2
v 2 0.1 -2
v 2 0.2 -2
v -2 0 2
v 2 0 2
v -2 0 -2
v 2 0 -2
v -1.8 0.1 1.8
v 1.8 0.1 1.8
v -1.6 0.1 1.6
v -0.0999999 0.1 1.6
v 0.1 0.1 1.6
v 1.6 0.1 1.6
v -1.6 0.1 0.0999999
v -0.0999999 0.1 0.0999999
v 0.1 0.1 0.0999999
v 1.6 0.1 0.0999999
v -1.6 0.1 -0.1
v -0.0999999 0.1 -0.1
v 0.1 0.1 -0.1
v 1.6 0.1 -0.1
v -1.6 0.1 -1.6
v -0.0999999 0.1 -1.6
v 0.1 0.1 -1.6
v 1.6 0.1 -1.6
v -1.8 0.1 -1.8
v 1.8 0.1 -1.8
v -2 0.2 2
v 2 0.2 2
v -1.8 0.2 1.8
v 1.8 0.2 1.8
v -1.6 0.2 1.6
v -0.0999999 0.2 1.6
v 0.1 0.2 1.6
v 1.6 0.2 1.6
v -1.6 0.2 0.0999999
v -0.0999999 0.2 0.0999999
v 0.1 0.2 0.0999999
v 1.6 0.2 0.0999999
v -1.6 0.2 -0.1
v -0.0999999 0.2 -0.1
v 0.1 0.2 -0.1
v 1.6 0.2 -0.1
v -1.6 0.2 -1.6
v -0.0999999 0.2 -1.6
v 0.1 0.2 -1.6
v 1.6 0.2 -1.6
v -1.8 0.2 -1.8
v 1.8 0.2 -1.8
v -2 0.2 -2
v 2 0.2 -2

# faces
f 3/4/1 2/4/1 1/4/1
f 4/4/1 2/4/1 3/4/1
f 5/1/1 4/1/1 3/1/1
f 6/1/1 4/1/1 5/1/1
f 11/3/1 8/3/1 7/3/1
f 12/3/1 8/3/1 11/3/1
f 13/2/1 10/2/1 9/2/1
f 14/2/1 10/2/1 13/2/1
f 19/2/1 16/2/1 15/2/1
f 20/2/1 16/2/1 19/2/1
f 21/3/1 18/3/1 17/3/1
f 22/3/1 18/3/1 21/3/1
f 25/1/1 24/1/1 23/1/1
f 26/1/1 24/1/1 25/1/1
f 27/1/2 28/1/2 29/1/2
f 29/1/2 28/1/2 30/1/2
f 31/3/2 32/3/2 35/3/2
f 35/3/2 32/3/2 36/3/2
f 33/2/2 34/2/2 37/2/2
f 37/2/2 34/2/2 38/2/2
f 39/2/2 40/2/2 43/2/2
f 43/2/2 40/2/2 44/2/2
f 41/3/2 42/3/2 45/3/2
f 45/3/2 42/3/2 46/3/2
f 47/4/2 48/4/2 49/4/2
f 49/4/2 48/4/2 50/4/2
f 49/1/2 50/1/2 51/1/2
f 51/1/2 50/1/2 52/1/2
f 56/4/3 54/4/3 53/4/3
f 57/1/3 55/1/3 54/1/3
f 57/4/3 54/4/3 56/4/3
f 58/1/3 55/1/3 57/1/3
f 61/3/3 60/3/3 59/3/3
f 62/3/3 60/3/3 61/3/3
f 65/2/3 64/2/3 63/2/3
f 66/2/3 64/2/3 65/2/3
f 69/2/3 68/2/3 67/2/3
f 70/2/3 68/2/3 69/2/3
f 73/3/3 72/3/3 71/3/3
f 74/3/3 72/3/3 73/3/3
f 77/1/3 76/1/3 75/1/3
f 78/1/3 76/1/3 77/1/3
f 79/1/4 80/1/4 81/1/4
f 81/1/4 80/1/4 82/1/4
f 83/3/4 84/3/4 85/3/4
f 85/3/4 84/3/4 86/3/4
f 87/2/4 88/2/4 89/2/4
f 89/2/4 88/2/4 90/2/4
f 91/2/4 92/2/4 93/2/4
f 93/2/4 92/2/4 94/2/4
f 95/3/4 96/3/4 97/3/4
f 97/3/4 96/3/4 98/3/4
f 99/4/4 100/4/4 102/4/4
f 100/1/4 101/1/4 103/1/4
f 102/4/4 100/4/4 103/4/4
f 103/1/4 101/1/4 104/1/4
f 107/4/5 106/4/5 105/4/5
f 108/4/5 106/4/5 107/4/5
f 109/4/6 110/4/6 111/4/6
f 111/4/6 110/4/6 112/4/6
f 112/4/6 110/4/6 113/4/6
f 113/4/6 110/4/6 114/4/6
f 109/4/6 111/4/6 115/4/6
f 112/4/6 113/4/6 116/4/6
f 116/4/6 113/4/6 117/4/6
f 114/4/6 110/4/6 118/4/6
f 116/4/6 117/4/6 119/4/6
f 117/4/6 118/4/6 119/4/6
f 109/4/6 115/4/6 119/4/6
f 115/4/6 116/4/6 119/4/6
f 119/4/6 118/4/6 120/4/6
f 120/4/6 118/4/6 121/4/6
f 118/4/6 110/4/6 122/4/6
f 121/4/6 118/4/6 122/4/6
f 109/4/6 119/4/6 123/4/6
f 120/4/6 121/4/6 124/4/6
f 124/4/6 121/4/6 125/4/6
f 122/4/6 110/4/6 126/4/6
f 109/4/6 123/4/6 127/4/6
f 125/4/6 126/4/6 127/4/6
f 124/4/6 125/4/6 127/4/6
f 123/4/6 124/4/6 127/4/6
f 126/4/6 110/4/6 128/4/6
f 127/4/6 126/4/6 128/4/6
f 129/1/6 130/1/6 131/1/6
f 131/1/6 130/1/6 132/1/6
f 133/3/6 134/3/6 137/3/6
f 137/3/6 134/3/6 138/3/6
f 135/2/6 136/2/6 139/2/6
f 139/2/6 136/2/6 140/2/6
f 141/2/6 142/2/6 145/2/6
f 145/2/6 142/2/6 146/2/6
f 143/3/6 144/3/6 147/3/6
f 147/3/6 144/3/6 148/3/6
f 129/1/6 131/1/6 149/1/6
f 132/1/6 130/1/6 150/1/6
f 129/1/6 149/1/6 151/1/6
f 149/1/6 150/1/6 151/1/6
f 150/1/6 130/1/6 152/1/6
f 151/1/6 150/1/6 152/1/6
